# xmcd CD database file
#
# Track frame offsets:
#	151
#	14411
#	29834
#	43065
#	56810
#	68143
#	82866
#	96283
#	111616
#	128551
#	144486
#	168521
#	179012
#	195161
#	210874
#	224565
#	239670
#	250983
#	263418
#	276723
#	291004
#	303505
#
# Disc length: 4283 seconds
#
# Revision: 0
# Processed by: cddbd v1.5.1PL0 Copyright (c) Steve Scherf et al.
# Submitted via: CDex 1.51
#
DISCID=5510b916
DTITLE=Jazz - Best of Jazz 2-1
DYEAR=1900
DGENRE=Jazz
TTITLE0=Cheek to cheek
TTITLE1=I can't give you anything but love
TTITLE2=Dear heart
TTITLE3=Over the rainbow
TTITLE4=My funny valentine
TTITLE5=Dream a little dream of me
TTITLE6=When I fall in love
TTITLE7=Isn't it romantic
TTITLE8=Our love is here to stay
TTITLE9=But not for me
TTITLE10=Autumn in New york
TTITLE11=What a wonderful world
TTITLE12=The girl from Ipanema
TTITLE13=Unforgettable
TTITLE14=Somebody to woatch over me
TTITLE15=Stranger on the shore
TTITLE16=The lady is a tramp
TTITLE17=Autumn leaves
TTITLE18=Fools rush in
TTITLE19=As time goes by
TTITLE20=Prelude to a kiss
TTITLE21=Stardust
EXTD=
EXTT0=
EXTT1=
EXTT2=
EXTT3=
EXTT4=
EXTT5=
EXTT6=
EXTT7=
EXTT8=
EXTT9=
EXTT10=
EXTT11=
EXTT12=
EXTT13=
EXTT14=
EXTT15=
EXTT16=
EXTT17=
EXTT18=
EXTT19=
EXTT20=
EXTT21=
PLAYORDER=
